<svg xmlns="http://www.w3.org/2000/svg" viewBox="0 0 652.7 480.09"><defs><style>.cls-1{fill:#5cb79d;}.cls-2{font-size:223.46px;fill:#fff;font-family:Norse;}.cls-3{letter-spacing:-0.02em;}.cls-4{letter-spacing:-0.03em;}</style></defs><g id="Lag_2" data-name="Lag 2"><g id="Lag_1-2" data-name="Lag 1"><path class="cls-1" d="M334,79.07a74.08,74.08,0,1,0,74.08,74.08A74.08,74.08,0,0,0,334,79.07Zm.23,131.13c-16.46,0-29.8-25.41-29.8-56.75s13.34-56.76,29.8-56.76S364,122.1,364,153.45,350.68,210.2,334.21,210.2Z"/><polygon class="cls-1" points="455.59 179.77 379.19 243.23 377.72 235.29 445.09 179.32 337.72 20.49 337.57 19.67 330.4 19.58 330.14 21.02 223.12 179.32 290.27 235.11 288.76 243.23 212.37 179.77 333.91 0 333.98 0.39 333.99 0.47 334.07 0.03 334.17 0.17 455.59 179.77"/><text class="cls-2" transform="translate(0 441.21)">HEIM<tspan class="cls-3" x="337.19" y="0">D</tspan><tspan x="419.42" y="0">AL</tspan><tspan class="cls-4" x="584.77" y="0">L</tspan></text></g></g></svg>