<svg xmlns="http://www.w3.org/2000/svg" viewBox="0 0 1675.9 448.71"><defs><style>.cls-1,.cls-2{fill:#fff;}.cls-2{font-size:402.53px;font-family:Norse;}.cls-3{letter-spacing:-0.02em;}.cls-4{letter-spacing:-0.03em;}</style></defs><g id="Lag_2" data-name="Lag 2"><g id="Lag_1-2" data-name="Lag 1"><path class="cls-1" d="M219.07,142.44A133.44,133.44,0,1,0,352.52,275.88,133.45,133.45,0,0,0,219.07,142.44Zm.42,236.21c-29.64,0-53.68-45.76-53.68-102.23s24-102.23,53.68-102.23S273.18,220,273.18,276.42,249.15,378.65,219.49,378.65Z"/><polygon class="cls-1" points="438.15 323.83 300.52 438.15 297.86 423.86 419.23 323.03 225.82 36.91 225.54 35.44 212.64 35.27 212.16 37.86 19.38 323.03 140.35 423.53 137.63 438.15 0 323.83 218.95 0 219.08 0.7 219.1 0.84 219.24 0.06 219.42 0.31 438.15 323.83"/><text class="cls-2" transform="translate(500.13 378.67)">HEIM<tspan class="cls-3" x="607.41" y="0">D</tspan><tspan x="755.54" y="0">AL</tspan><tspan class="cls-4" x="1053.41" y="0">L</tspan></text></g></g></svg>