<svg xmlns="http://www.w3.org/2000/svg" viewBox="0 0 948.34 243.23"><defs><style>.cls-1{fill:#5cb79d;}.cls-2{fill:#fff;}</style></defs><g id="Lag_2" data-name="Lag 2"><g id="Lag_1-2" data-name="Lag 1"><path class="cls-1" d="M121.61,79.07a74.08,74.08,0,1,0,74.08,74.08A74.08,74.08,0,0,0,121.61,79.07Zm.24,131.13C105.39,210.2,92,184.79,92,153.45s13.35-56.76,29.81-56.76,29.8,25.41,29.8,56.76S138.31,210.2,121.85,210.2Z"/><polygon class="cls-1" points="243.23 179.77 166.83 243.23 165.35 235.29 232.73 179.32 125.36 20.49 125.2 19.67 118.04 19.58 117.77 21.02 10.76 179.32 77.91 235.11 76.4 243.23 0 179.77 121.54 0 121.62 0.39 121.63 0.47 121.71 0.03 121.8 0.17 243.23 179.77"/><path class="cls-2" d="M315.75,137.14l-1.35-26.81,1.12-23.91L314,71.67v-.89l-.9-14.52.67-5.59-.89-4.47L312,41.73l2.45-2.68,10.73,1.34-.89,12.07-1.57,10.95.23,16.75-.23,9.61,1.57,25.48.22,6.25,18.77-6.25,3.35.22,4.25-1.57,3.8-2.68h1.56l8.27-3.79,5.81-3.13L371.61,94l-.67-22.57-.45-22.12-.89-7.6.89-2,5.14.22,6.48.45.22,5.14L381,59.16l-1.11,20.33-.9,21.68.9,11.39.44,4.7.67,43.12.45,30.62,1.34,6.47L383,204l-2.23.44h-9.39l-1.11-2.68,1.56-14.08L373,182.5l-1.79-2.9V131.78L370,128.65l-.22-12.51-19.89,5.36h-1.11L326,130.89l-1.56.67.22,1.56-1.34,44.24-.22.9,1.34,13,1.12,10.72-.45,2.46-3.35.45-9.39-.89.23-5.81.89-27.49Z"/><path class="cls-2" d="M462.33,51.12l-6.7-1.79-3.58.44L438.2,48.66h-2.68l-2.69-.23-4.91.9.45,2,.67,2,.22,4-.45,6.26-.44,22.12-1.57,2.68.23,13,.89,15.42,15.64.22,11.17-1.34,6.26-.22,1.79,1.79-1.12,4.91-.67,4.47-6-.45-21.23-1.11-4.92-.23-1.56,30.62,1.56,6.7-1.34,4.47,1.12,1.12.45,23.91.22,2.45,7.15,1.57H440l19.66-1.57,6-1.11,4.92.67-.9,9.6-1.56,1.57-13-.22-14.08-1.35h-11l-1.78,1.12-10.95-.22-.9-4.25.9-8.49.44-9.61.45-10.05.89-5.14L419,155.69l-.22-11.62,1.56-3.35-.89-.67-1.57-22.79.67-8.72V90.22l.23-18.55-.23-14.3,1.12-4.47-1.12-.67-.67-11.62,5.59-.67h12.29l3.8.67,12.51-.67,15-.22.23,4-.67,7.38Z"/><path class="cls-2" d="M496.3,98.93l-.9-53.4-.67-6.26,4-1.11,8.94,1.78L507,51.34l-1.12,6.48-.67,31.28-.67,12.07.9,11,.44,6.48.23,4.24.22,1.12v66.36l.45,4.7.89,4.47-.45,3.79-4.91,1.35-4.25-.23-3.57-.22,2-14.3V127.31l.67-7.59.89-13.64Z"/><path class="cls-2" d="M573.16,77.71l.67.67,2.24,4.91.89,2.46,1.12,2,.89-2,1.34-2.23,6.48-9.84L594.17,61l1.56-4.25.89-.44h-.22l4.92-8.72,5.14-8.94,6.25.23,2.46,2-1.56,30.61-1.12,6.48.89,3.35,2.46,105.92.45,8.26.67,8.94-11.84.45-1.35-1.34.45-5.81,1.57-16.09V153.23l1.11-3.35-.67-1.56-1.56-11.4,1.56-52.06L605.56,71l-.22-13-.45.45-2,3.57-7.37,10.73L589.92,82l-1.79,4-.89,1.57-2.46,4H585l-3.8,8-1.57-.44L574.28,98l-1.79-6.48-2.68-4L560.2,71l-3.13-5.81-2.45-3.13-2.69-3.57-.22.22L552.6,67v5.81l.23,1.79L552.16,92l-.9,2.46,1.12,1.11v30.17l-1.56,10.95,2,28.6,2,35.08-.45,3.8-12.51.45-.67-3.36,1.34-8.49.22-6.7L543,185l1.78-1.79-1.56-.44L543,176l1.34-95.19-.9-11.39-.89-10.5,1.12-4.47-.9-3.35-.89-3.58-.22-6.93,7.15-1.34,2-.44,9.61,17Z"/><path class="cls-2" d="M663.21,206.19l-2.9-1.12-4.69-.22-4.7-.22.9-11.62.89-54.3-.89-9.16L650.92,67l.67-6L650,57.82l-.45-12.29-.22-4.92,6.7-2L659.41,37l4.7,6.26,7.15,8.93,2,4,.67.67,2.9,3.35,6.26,8.94.67,4.46L692,82.4l20.56,27.93,2.9,2.68v11.62L712.37,130l-10.28,14.3-3.57,1.79h.22l.45,1.34.67,1.12-13.18,20.11-8,15.42Zm-4-104.57,1.12,9.38,1.34,8.94-1.79,45.81.22,4.69.23,7.15.89,11.17.45,2.68.45-.22,7.37-10.95L673,175.8l5.37-8.71,3.35-4,12.29-20.78,8.94-13,4-8.49-1.79-3.8-2.46-3.57L701,110.55l-6-9.83L687.35,92l-13-18.1L659.64,53.57l.22,3.13.22,4.25.9,15.86.22,19.44Z"/><path class="cls-2" d="M780.3,152.56l-3.13.45-4,.67-2.23.22-6,3.8L750.58,162,745,163.73l-1.12.45-3.13,1.12.23.89-3.36,20.11-.22,1.34v8.49l-1.34,9.61-8.72-.67-3.79-3.57,5.81-24.36,2.23-13.63,2.9-3.57-.22-.67V154.8l5.36-29.5.9-4.69,1.11-4.69v-2.69l.23-2.68,6.48-32.62,2.9-6.48-1.34-1.34,1.34-9.39,1.57-9.83,2.23-12.29,12.07.67-.67,5.14,1.12,3.13.89,3.13,7.37,34.41-.89,3.8.45,1.79.67,2,13,57v4l6,22.34,2,15.2,3.8,11.17-7.6,3.58h-1.34l-3.13-1.12-2.9-23,2.23-2-2.68-3.13-1.12-8-.67-2-.67-6ZM747,128.21l-2.68,15.41-.45,2.24-.45,2.23-.67,6.71h2.91l1.11-.23,4.92-.22.22-.67.23-.89,15.19-4.92,6.48-2,2.91-1.34,2.68-1.34h-.23l-1.11-1.79L772.26,113l-1.79-12.29-8.27-38-1.11-4.46-.23,4-7.6,35.53L751,101.39l.67,2.68Z"/><path class="cls-2" d="M868.12,192.78l6.7-.89.9,2-1.12,9.38-1.79,1.79L856.72,204l-2,.22H842.42l-2.68-.45-10.73.9-4-.45v-8.72l1.79-4.91-1.34-6.93,1.79-39.55-.67-80.44,1.34-5.14-2.24-1.79-1.34-16.09h6l6.92-1.11,1.12.89-.22,12.74-.9,8.26-1.11,26.82L834.6,114.8V126l.22,2.91.45,19.21v1.12l.67,12.29-2,.89h.22l1.79,3.13,1.12,17,.22,9.17-1.11,1.11,2.45,2.24,23.91-.45Z"/><path class="cls-2" d="M940.74,192.78l6.7-.89.9,2-1.12,9.38-1.79,1.79L929.35,204l-2,.22H915l-2.68-.45-10.72.9-4-.45v-8.72l1.78-4.91-1.34-6.93,1.79-39.55-.67-80.44,1.34-5.14-2.23-1.79-1.35-16.09h6l6.92-1.11,1.12.89-.22,12.74-.9,8.26-1.11,26.82-1.57,26.59V126l.23,2.91.44,19.21v1.12l.67,12.29-2,.89h.23l1.78,3.13,1.12,17,.22,9.17-1.11,1.11,2.46,2.24,23.9-.45Z"/></g></g></svg>