<svg xmlns="http://www.w3.org/2000/svg" viewBox="0 0 2379.52 2379.52"><defs><style>.cls-1{fill:#5cb79d;}</style></defs><g id="Lag_2" data-name="Lag 2"><g id="Lag_1-2" data-name="Lag 1"><path class="cls-1" d="M1189.76,773.56c-400.22,0-724.7,324.48-724.7,724.71S789.54,2223,1189.76,2223s724.7-324.48,724.7-724.7S1590,773.56,1189.76,773.56ZM1192,2056.41c-161,0-291.58-248.57-291.58-555.22S1031,946,1192,946s291.58,248.56,291.58,555.22S1353.11,2056.41,1192,2056.41Z"/><polygon class="cls-1" points="2379.52 1758.66 1632.09 2379.52 1617.65 2301.91 2276.77 1754.33 1226.39 200.48 1224.89 192.45 1154.8 191.53 1152.19 205.6 105.24 1754.33 762.2 2300.11 747.43 2379.52 0 1758.66 1189.07 0 1189.79 3.78 1189.9 4.57 1190.68 0.32 1191.62 1.66 2379.52 1758.66"/></g></g></svg>